<svg width="16" height="16" viewBox="0 0 44 44" xmlns="http://www.w3.org/2000/svg">
  <circle cx="22" cy="22" r="22" fill="#E84142"/>
  <path fill-rule="evenodd" clip-rule="evenodd" d="M23.3166 6.53071C22.5544 5.21417 21.3418 5.21417 20.5795 6.53071L6.7386 30.9039C5.9764 32.2378 6.60002 33.2945 8.12443 33.2945H15.0709C16.474 33.2079 17.7386 32.463 18.5008 31.285L26.8677 16.7858C27.474 15.5386 27.474 14.0661 26.8677 12.8189L24.3732 8.43622L23.3166 6.53071ZM32.515 22.5717C31.7528 21.2551 30.5229 21.2551 29.7607 22.5717L24.9276 30.9039C24.1827 32.2205 24.8063 33.2945 26.3134 33.2945H35.8756C37.4 33.2945 38.0236 32.2205 37.2614 30.9039L32.515 22.5717Z" fill="white"/>
</svg>
