<svg width="600" height="600" viewBox="0 0 600 600" fill="none" xmlns="http://www.w3.org/2000/svg">
<rect width="600" height="600" rx="300" fill="#000011"/>
<g clip-path="url(#clip0_216_160)">
<path d="M410.899 145.007C399.488 145.036 388.553 149.587 380.489 157.662C372.426 165.737 367.892 176.679 367.879 188.09V210.746C355.187 184.899 333.45 164.608 306.791 153.723C280.132 142.838 250.405 142.116 223.248 151.693C200.374 159.802 180.572 174.794 166.562 194.609C152.551 214.425 145.019 238.092 145 262.36V410.9C145 422.331 149.541 433.294 157.624 441.376C165.707 449.459 176.67 454 188.101 454C199.532 454 210.494 449.459 218.577 441.376C226.66 433.294 231.201 422.331 231.201 410.9V388.292C243.889 414.13 265.621 434.411 292.272 445.287C318.923 456.164 348.64 456.879 375.784 447.298C398.65 439.191 418.446 424.203 432.451 404.393C446.456 384.583 453.984 360.923 454 336.662V188.09C453.983 176.666 449.436 165.715 441.356 157.639C433.277 149.562 422.324 145.019 410.899 145.007ZM336.644 442.071C314.112 442.165 292.149 435 274.007 421.638C255.865 408.276 242.508 389.426 235.915 367.881L235.739 367.255C232.713 357.34 231.184 347.029 231.201 336.662V262.36C231.21 254.093 234.499 246.167 240.346 240.323C246.193 234.479 254.121 231.194 262.388 231.19C270.647 231.211 278.562 234.502 284.4 240.344C290.239 246.185 293.526 254.101 293.543 262.36V336.63C293.557 348.06 298.107 359.018 306.194 367.095C312.228 373.103 319.905 377.19 328.257 378.842C336.61 380.495 345.264 379.638 353.131 376.38C360.998 373.123 367.724 367.61 372.463 360.536C377.202 353.462 379.741 345.144 379.76 336.63V188.09C379.76 183.999 380.566 179.948 382.132 176.168C383.698 172.388 385.993 168.954 388.886 166.061C391.779 163.168 395.213 160.873 398.993 159.307C402.773 157.742 406.824 156.936 410.915 156.936C415.007 156.936 419.058 157.742 422.838 159.307C426.618 160.873 430.052 163.168 432.945 166.061C435.838 168.954 438.133 172.388 439.699 176.168C441.265 179.948 442.07 183.999 442.07 188.09V336.63C442.081 350.479 439.361 364.193 434.067 376.989C428.773 389.786 421.008 401.413 411.216 411.206C401.424 420.999 389.798 428.765 377.002 434.061C364.207 439.357 350.492 442.079 336.644 442.071ZM367.879 336.63C367.872 342.791 366.042 348.812 362.619 353.934C359.196 359.056 354.333 363.051 348.644 365.414C342.954 367.776 336.692 368.402 330.648 367.212C324.603 366.022 319.046 363.069 314.677 358.725C311.477 355.556 309.009 351.725 307.445 347.501C307.156 346.748 306.9 345.898 306.643 345.048L306.547 344.615L306.451 344.214C306.307 343.653 306.162 343.092 306.066 342.499C306.066 342.29 306.066 342.066 305.954 341.841V341.505C305.954 340.976 305.794 340.446 305.745 339.901C305.697 339.356 305.745 339.244 305.745 338.811C305.745 338.378 305.745 337.737 305.745 337.208V262.36C305.735 256.681 304.605 251.059 302.419 245.817C300.233 240.575 297.035 235.816 293.008 231.811C288.981 227.806 284.204 224.635 278.95 222.479C273.696 220.323 268.068 219.223 262.388 219.245C250.957 219.257 239.997 223.804 231.914 231.887C223.831 239.97 219.284 250.929 219.272 262.36V410.9C219.272 419.167 215.988 427.095 210.142 432.941C204.296 438.787 196.368 442.071 188.101 442.071C179.834 442.071 171.905 438.787 166.059 432.941C160.214 427.095 156.93 419.167 156.93 410.9V262.36C156.948 237.083 166.045 212.653 182.565 193.521C199.084 174.388 221.926 161.825 246.931 158.12C271.935 154.415 297.439 159.815 318.797 173.335C340.155 186.856 355.945 207.598 363.293 231.783L363.726 233.194C366.47 242.674 367.868 252.492 367.879 262.36V336.63Z" fill="url(#paint0_linear_216_160)"/>
</g>
<defs>
<linearGradient id="paint0_linear_216_160" x1="166.19" y1="432.377" x2="534.416" y2="63.5886" gradientUnits="userSpaceOnUse">
<stop offset="0.05" stop-color="white"/>
<stop offset="0.38" stop-color="#A7B3FF"/>
<stop offset="1" stop-color="#74A4FF"/>
</linearGradient>
<clipPath id="clip0_216_160">
<rect width="309" height="309" fill="white" transform="translate(145 145)"/>
</clipPath>
</defs>
</svg>
